<svg xmlns="http://www.w3.org/2000/svg" version="1.1" xmlns:xlink="http://www.w3.org/1999/xlink" xmlns:svgjs="http://svgjs.dev/svgjs" width="1440" height="560" preserveAspectRatio="none" viewBox="0 0 1440 560"><g mask="url(&quot;#SvgjsMask1144&quot;)" fill="none"><rect width="1440" height="560" x="0" y="0" fill="rgba(48, 43, 98, 1)"></rect><path d="M1440 0L1406.6 0L1440 253.59z" fill="rgba(255, 255, 255, .1)"></path><path d="M1406.6 0L1440 253.59L1440 259.25L695.1499999999999 0z" fill="rgba(255, 255, 255, .075)"></path><path d="M695.15 0L1440 259.25L1440 435.22L547.17 0z" fill="rgba(255, 255, 255, .05)"></path><path d="M547.17 0L1440 435.22L1440 438.74L267.34 0z" fill="rgba(255, 255, 255, .025)"></path><path d="M0 560L472.28 560L0 550.27z" fill="rgba(0, 0, 0, .1)"></path><path d="M0 550.27L472.28 560L691.63 560L0 510.37z" fill="rgba(0, 0, 0, .075)"></path><path d="M0 510.37L691.63 560L1003.62 560L0 266.4z" fill="rgba(0, 0, 0, .05)"></path><path d="M0 266.4L1003.62 560L1181.3600000000001 560L0 100.12999999999997z" fill="rgba(0, 0, 0, .025)"></path></g><defs><mask id="SvgjsMask1144"><rect width="1440" height="560" fill="#ffffff"></rect></mask></defs></svg>