<svg xmlns="http://www.w3.org/2000/svg" version="1.1" xmlns:xlink="http://www.w3.org/1999/xlink" xmlns:svgjs="http://svgjs.dev/svgjs" width="1440" height="560" preserveAspectRatio="none" viewBox="0 0 1440 560"><g mask="url(&quot;#SvgjsMask1049&quot;)" fill="none"><rect width="1440" height="560" x="0" y="0" fill="rgba(48, 43, 98, 1)"></rect><path d="M0,297.326C65.352,290.256,131.563,323.493,193.177,300.59C261.686,275.124,321.068,226.437,358.919,163.913C399.263,97.271,423.276,17.835,410.917,-59.081C398.638,-135.495,356.119,-209.72,291.932,-252.961C232.286,-293.143,151.899,-262.157,82.342,-280.433C15.752,-297.929,-38.177,-374.242,-104.89,-357.222C-171.287,-340.282,-195.142,-258.629,-231.292,-200.416C-262.095,-150.813,-280.898,-98.32,-299.944,-43.125C-323.656,25.593,-370.936,91.601,-356.65,162.877C-341.48,238.562,-294.276,318.286,-222.048,345.514C-149.712,372.783,-76.856,305.641,0,297.326" fill="#1f1c40"></path><path d="M1440 1158.54C1548.595 1177.482 1627.214 1055.171 1721.069 997.3530000000001 1817.1390000000001 938.171 1957.319 920.075 1997.967 814.815 2038.8339999999998 708.988 1958.7089999999998 596.767 1916.415 491.502 1882.976 408.277 1839.076 332.799 1777.934 267.178 1718.628 203.52800000000002 1647.865 156.80599999999998 1569.453 119.12299999999999 1477.86 75.106 1385.639 21.476 1284.375 29.989000000000033 1173.422 39.31700000000001 1053.493 78.24700000000001 987.648 168.03500000000003 922.529 256.833 954.27 379.291 947.614 489.206 941.56 589.189 896.493 699.165 950.373 783.605 1004.077 867.769 1136.327 848.483 1215.594 909.182 1306.211 978.573 1327.564 1138.9279999999999 1440 1158.54" fill="#413a84"></path></g><defs><mask id="SvgjsMask1049"><rect width="1440" height="560" fill="#ffffff"></rect></mask></defs></svg>