<svg xmlns="http://www.w3.org/2000/svg" version="1.1" xmlns:xlink="http://www.w3.org/1999/xlink" xmlns:svgjs="http://svgjs.dev/svgjs" width="1440" height="560" preserveAspectRatio="none" viewBox="0 0 1440 560"><g mask="url(&quot;#SvgjsMask1003&quot;)" fill="none"><path d="M 0,232 C 57.6,210.4 172.8,141.2 288,124 C 403.2,106.8 460.8,162 576,146 C 691.2,130 748.8,26.6 864,44 C 979.2,61.4 1036.8,225.2 1152,233 C 1267.2,240.8 1382.4,113 1440,83L1440 560L0 560z" fill="rgba(16, 12, 42, 1)"></path><path d="M 0,513 C 96,482.8 288,376.8 480,362 C 672,347.2 768,439.6 960,439 C 1152,438.4 1344,375 1440,359L1440 560L0 560z" fill="rgba(48, 43, 98, 1)"></path></g><defs><mask id="SvgjsMask1003"><rect width="1440" height="560" fill="#ffffff"></rect></mask></defs></svg>